<svg xmlns="http://www.w3.org/2000/svg" width="250" height="250" viewBox="0 0 250 250">
<!-- SVG created with Arrow, by QuiverAI (https://quiver.ai) -->
  <path d="m143.3 59.8-35.61 37.19 5.52 5.16 8.01-9.36h43.23l29.44 28.93v6.59l-24.98 27.8 1.59 1.72-22.26 23.14c26.9-9.06 46.7-22.23 78.73-53.49l-0.23-5.81c-10.35-12.04-17.97-19.71-28.99-28.16-1.11 0.6-2.3 0.97-3.61 0.97-5.8 0-8.56-5.39-8.56-7.5 0-5.86 4.26-8.97 8.07-8.97 6.32 0 8.72 5.85 8.52 9.2-0.05 0.75-0.13 1.4-0.27 2.03 11.74 9.54 20.51 17.83 30.51 27.96 1.24-0.52 2.56-0.78 3.84-0.78 6.2 0 7.28 6.35 7.28 8.39 0 5.31-4.09 8.62-7.89 8.62-1.39 0-2.69-0.32-3.85-0.87-28.6 31.42-56.8 47.38-94.05 57.37l10.01-10.85c23.37-7.1 44.13-19.05 69.1-44.89 2.91-3.03 6.16-6.48 9.3-9.92l0.1-2.18c-9.98-11.81-19.14-21-28.79-28.47-1.05 0.57-2.25 0.92-3.69 0.92-5.97 0-8.13-5.38-8.13-7.65 0-4.93 3.77-8.88 8.19-8.88 6.26 0 8.31 5.52 8.31 8.2 0 1.15-0.13 2.18-0.38 3.12 11.19 9.23 19.95 17.85 30.54 27.99 1.24-0.57 2.59-0.9 4.07-0.9 6.38 0 7.16 6.35 7.16 8.16 0 5.33-4.09 8.73-8.09 8.73-1.42 0-2.73-0.36-3.88-0.99-24.33 27.17-52.45 47.5-94.05 57.37l9.66-10.78c22.69-7.47 41.78-19.82 52.92-30.97 6.79-6.79 11.46-12.18 11.46-22.66 0-5.05-3.53-8.39-7.9-8.39-1.4 0-2.69 0.27-3.85 0.77l-32.66-32.95h-38.95l17.02-17.03c11.83 3.25 23.64 8.38 34.93 15.14l2.87-6.7c-11.89-6.96-24.56-12.41-39.71-16.32z" fill="#132F50"/>
  <path d="m143.1 60-35.28 36.72 4.93 4.86 8.02-9.13h43.66l29.79 29.27v6.59l-25.82 27.6 1.73 2.03-23.43 23.26c3.89-1.44 7.71-3.07 10.89-4.57l41.13-43.9c1.2 0.58 2.54 0.93 4.01 0.93 6.02 0 7.86-5.52 7.86-8.35 0-5.2-3.24-8.45-7.57-8.45-1.4 0-2.72 0.3-3.9 0.85l-32.03-32.65h-38.86l16.69-17.64c11.64 3.06 23.36 8.33 34.91 15.4l3.16-6.53c-12.36-7.3-24.79-12.58-39.89-16.29z" fill="#2CB9CC"/>
  <path d="m111.6 58.83c-39.24 9.3-67.15 25.32-95.3 58.09-0.85-0.3-1.76-0.44-2.7-0.44-5.69 0-7.44 5.78-7.44 8.21 0 5.92 4.81 8.74 8.24 8.74 1.31 0 2.54-0.32 3.63-0.9 9.08 10.45 17.18 18.26 29.51 28.18-0.24 0.85-0.38 1.76-0.38 2.72 0 5.58 4.61 7.95 8.55 7.95 5.91 0 7.96-5.42 7.96-7.55 0-5.71-4.42-8.9-8.31-8.9-1.5 0-2.87 0.38-4.06 1.04-11.29-9.16-18.99-17.18-29.5-28.26 0.41-1.09 0.64-2.25 0.64-3.5 0-1.1-0.2-2.15-0.58-3.12 24.04-26.07 45.21-41.22 77.22-51.08l-19.92 22.21 1.72 2.06-30.86 22.64c-1.09-0.38-2.28-0.61-3.57-0.61-6.61 0-8.88 5.07-8.88 8.44 0 5.75 4.2 8.47 8.53 8.47 1.5 0 2.8-0.34 3.92-0.93l32.32 32.32h38.26l-16.46 17.11c-11.93-3.01-23.14-7.41-34.13-14.12l-4.01 5.39c12.7 7.64 25 13.03 40.04 16.22l34.37-35.38-4.34-5.69-9.36 9.36h-41.81l-30.08-30.08c0.38-1.09 0.6-2.28 0.6-3.53 0-1.09-0.17-2.14-0.52-3.11l27.21-27.21-2.28-2.46 20.54-22.21 1.87-0.68 9.36-9.39z" fill="#132F50"/>
  <path d="m124.7 49.4c-6.61 0-7.96 6.08-7.96 8.51 0 1.01 0.14 1.95 0.41 2.83l-30.92 31.54 20.73 20.73c-2.54 4.02-3.36 7.65-3.36 11.4 0 5.71 2 10.01 3.65 12.67l-6.76 6.76-19.32-19.03 8.88-8.62v-12.33l-6.7-8.02v18.57l-12.64 10.9 30.01 28.4 11.57-11.57c4.45 3.01 7.82 4.04 12.12 4.04 5.63 0 9.52-1.84 12.53-3.95l15.49 16.24-24.65 24.65c-1.07-0.44-2.26-0.7-3.51-0.7-6.07 0-7.82 5.69-7.82 8.29 0 5.95 4.47 8.28 7.96 8.28 6.07 0 8.12-5.07 8.12-8.08 0-0.95-0.17-1.85-0.47-2.7l30.92-29.8-21.28-21.62c3.01-4.17 4.01-7.48 4.01-12.38 0-5.33-1.9-9.13-4.01-11.91l7.08-7.08 20.03 19.6-9.71 9.2v12.33l6.9 7.16v-17.46l11.82-11.55-29.27-29.27-11.93 12.21c-3.98-2.92-7.72-4.23-12.21-4.23-5.21 0-9.36 1.72-12.67 4l-15.49-15.19 24.93-26.06c1.03 0.49 2.18 0.78 3.46 0.78 6.5 0 8.06-6.02 8.06-8.4 0-5.53-4.32-9.14-8-9.14zm-0.29 60.62c8.81 0 14.39 7.7 14.39 14.68 0 8.41-6.71 14.21-14.16 14.21-8.31 0-14.63-6.76-14.63-14.21 0-8.57 6.7-14.68 14.4-14.68z" fill="#132F50"/>
</svg>